<mxfile host="65bd71144e">
    <diagram id="bXainipnI_nRsWk-JB84" name="Page-1">
        <mxGraphModel dx="765" dy="1663" grid="1" gridSize="10" guides="1" tooltips="1" connect="1" arrows="1" fold="1" page="1" pageScale="1" pageWidth="850" pageHeight="1100" background="#ffffff" math="0" shadow="1">
            <root>
                <mxCell id="0"/>
                <mxCell id="1" parent="0"/>
                <UserObject label="" mermaidData="{&#xa;  &quot;data&quot;: &quot;classDiagram\n    %% Interface\n    class Door {\n        &lt;&lt;interface&gt;&gt;\n        +open()\n        +close()\n    }\n\n    %% Concrete Implementations\n    class WoodenDoor {\n        +open()\n        +close()\n    }\n\n    class IronDoor {\n        +open()\n        +close()\n    }\n\n    %% Factory\n    class DoorFactory {\n        +createDoor(String type) Door\n    }\n\n    %% Client\n    class SimpleFactoryDP {\n        +main(String[] args)\n    }\n\n    %% Relationships\n    Door &lt;|.. WoodenDoor : implements\n    Door &lt;|.. IronDoor : implements\n    DoorFactory --&gt; Door : creates\n    SimpleFactoryDP --&gt; DoorFactory : uses\n&quot;&#xa;}" id="2">
                    <mxCell style="shape=image;noLabel=1;verticalAlign=top;imageAspect=1;image=data:image/svg+xml,PHN2ZyBhcmlhLXJvbGVkZXNjcmlwdGlvbj0iY2xhc3MiIHJvbGU9ImdyYXBoaWNzLWRvY3VtZW50IGRvY3VtZW50IiB2aWV3Qm94PSIwIDAgMzEzLjU1MDAxODMxMDU0NjkgODA5LjIwMDA3MzI0MjE4NzUiIHN0eWxlPSJtYXgtd2lkdGg6IDMxMy41NTAwMTgzMTA1NDY5cHg7IiBjbGFzcz0iY2xhc3NEaWFncmFtIiB4bWxucz0iaHR0cDovL3d3dy53My5vcmcvMjAwMC9zdmciIHdpZHRoPSIxMDAlIiBpZD0iZ2VNZXJtYWlkT3V0cHV0LTE3NTMxMTMwNTU5MjkiPjxzdHlsZT4jZ2VNZXJtYWlkT3V0cHV0LTE3NTMxMTMwNTU5Mjl7Zm9udC1mYW1pbHk6InRyZWJ1Y2hldCBtcyIsdmVyZGFuYSxhcmlhbCxzYW5zLXNlcmlmO2ZvbnQtc2l6ZToxNnB4O2ZpbGw6IzAwMDAwMDt9I2dlTWVybWFpZE91dHB1dC0xNzUzMTEzMDU1OTI5IC5lcnJvci1pY29ue2ZpbGw6IzU1MjIyMjt9I2dlTWVybWFpZE91dHB1dC0xNzUzMTEzMDU1OTI5IC5lcnJvci10ZXh0e2ZpbGw6IzU1MjIyMjtzdHJva2U6IzU1MjIyMjt9I2dlTWVybWFpZE91dHB1dC0xNzUzMTEzMDU1OTI5IC5lZGdlLXRoaWNrbmVzcy1ub3JtYWx7c3Ryb2tlLXdpZHRoOjFweDt9I2dlTWVybWFpZE91dHB1dC0xNzUzMTEzMDU1OTI5IC5lZGdlLXRoaWNrbmVzcy10aGlja3tzdHJva2Utd2lkdGg6My41cHg7fSNnZU1lcm1haWRPdXRwdXQtMTc1MzExMzA1NTkyOSAuZWRnZS1wYXR0ZXJuLXNvbGlke3N0cm9rZS1kYXNoYXJyYXk6MDt9I2dlTWVybWFpZE91dHB1dC0xNzUzMTEzMDU1OTI5IC5lZGdlLXRoaWNrbmVzcy1pbnZpc2libGV7c3Ryb2tlLXdpZHRoOjA7ZmlsbDpub25lO30jZ2VNZXJtYWlkT3V0cHV0LTE3NTMxMTMwNTU5MjkgLmVkZ2UtcGF0dGVybi1kYXNoZWR7c3Ryb2tlLWRhc2hhcnJheTozO30jZ2VNZXJtYWlkT3V0cHV0LTE3NTMxMTMwNTU5MjkgLmVkZ2UtcGF0dGVybi1kb3R0ZWR7c3Ryb2tlLWRhc2hhcnJheToyO30jZ2VNZXJtYWlkT3V0cHV0LTE3NTMxMTMwNTU5MjkgLm1hcmtlcntmaWxsOiM2NjY7c3Ryb2tlOiM2NjY7fSNnZU1lcm1haWRPdXRwdXQtMTc1MzExMzA1NTkyOSAubWFya2VyLmNyb3Nze3N0cm9rZTojNjY2O30jZ2VNZXJtYWlkT3V0cHV0LTE3NTMxMTMwNTU5Mjkgc3Zne2ZvbnQtZmFtaWx5OiJ0cmVidWNoZXQgbXMiLHZlcmRhbmEsYXJpYWwsc2Fucy1zZXJpZjtmb250LXNpemU6MTZweDt9I2dlTWVybWFpZE91dHB1dC0xNzUzMTEzMDU1OTI5IHB7bWFyZ2luOjA7fSNnZU1lcm1haWRPdXRwdXQtMTc1MzExMzA1NTkyOSBnLmNsYXNzR3JvdXAgdGV4dHtmaWxsOiM5OTk7c3Ryb2tlOm5vbmU7Zm9udC1mYW1pbHk6InRyZWJ1Y2hldCBtcyIsdmVyZGFuYSxhcmlhbCxzYW5zLXNlcmlmO2ZvbnQtc2l6ZToxMHB4O30jZ2VNZXJtYWlkT3V0cHV0LTE3NTMxMTMwNTU5MjkgZy5jbGFzc0dyb3VwIHRleHQgLnRpdGxle2ZvbnQtd2VpZ2h0OmJvbGRlcjt9I2dlTWVybWFpZE91dHB1dC0xNzUzMTEzMDU1OTI5IC5ub2RlTGFiZWwsI2dlTWVybWFpZE91dHB1dC0xNzUzMTEzMDU1OTI5IC5lZGdlTGFiZWx7Y29sb3I6IzExMTExMTt9I2dlTWVybWFpZE91dHB1dC0xNzUzMTEzMDU1OTI5IC5lZGdlTGFiZWwgLmxhYmVsIHJlY3R7ZmlsbDojZWVlO30jZ2VNZXJtYWlkT3V0cHV0LTE3NTMxMTMwNTU5MjkgLmxhYmVsIHRleHR7ZmlsbDojMTExMTExO30jZ2VNZXJtYWlkT3V0cHV0LTE3NTMxMTMwNTU5MjkgLmxhYmVsQmtne2JhY2tncm91bmQ6I2VlZTt9I2dlTWVybWFpZE91dHB1dC0xNzUzMTEzMDU1OTI5IC5lZGdlTGFiZWwgLmxhYmVsIHNwYW57YmFja2dyb3VuZDojZWVlO30jZ2VNZXJtYWlkT3V0cHV0LTE3NTMxMTMwNTU5MjkgLmNsYXNzVGl0bGV7Zm9udC13ZWlnaHQ6Ym9sZGVyO30jZ2VNZXJtYWlkT3V0cHV0LTE3NTMxMTMwNTU5MjkgLm5vZGUgcmVjdCwjZ2VNZXJtYWlkT3V0cHV0LTE3NTMxMTMwNTU5MjkgLm5vZGUgY2lyY2xlLCNnZU1lcm1haWRPdXRwdXQtMTc1MzExMzA1NTkyOSAubm9kZSBlbGxpcHNlLCNnZU1lcm1haWRPdXRwdXQtMTc1MzExMzA1NTkyOSAubm9kZSBwb2x5Z29uLCNnZU1lcm1haWRPdXRwdXQtMTc1MzExMzA1NTkyOSAubm9kZSBwYXRoe2ZpbGw6I2VlZTtzdHJva2U6Izk5OTtzdHJva2Utd2lkdGg6MXB4O30jZ2VNZXJtYWlkT3V0cHV0LTE3NTMxMTMwNTU5MjkgLmRpdmlkZXJ7c3Ryb2tlOiM5OTk7c3Ryb2tlLXdpZHRoOjE7fSNnZU1lcm1haWRPdXRwdXQtMTc1MzExMzA1NTkyOSBnLmNsaWNrYWJsZXtjdXJzb3I6cG9pbnRlcjt9I2dlTWVybWFpZE91dHB1dC0xNzUzMTEzMDU1OTI5IGcuY2xhc3NHcm91cCByZWN0e2ZpbGw6I2VlZTtzdHJva2U6Izk5OTt9I2dlTWVybWFpZE91dHB1dC0xNzUzMTEzMDU1OTI5IGcuY2xhc3NHcm91cCBsaW5le3N0cm9rZTojOTk5O3N0cm9rZS13aWR0aDoxO30jZ2VNZXJtYWlkT3V0cHV0LTE3NTMxMTMwNTU5MjkgLmNsYXNzTGFiZWwgLmJveHtzdHJva2U6bm9uZTtzdHJva2Utd2lkdGg6MDtmaWxsOiNlZWU7b3BhY2l0eTowLjU7fSNnZU1lcm1haWRPdXRwdXQtMTc1MzExMzA1NTkyOSAuY2xhc3NMYWJlbCAubGFiZWx7ZmlsbDojOTk5O2ZvbnQtc2l6ZToxMHB4O30jZ2VNZXJtYWlkT3V0cHV0LTE3NTMxMTMwNTU5MjkgLnJlbGF0aW9ue3N0cm9rZTojNjY2O3N0cm9rZS13aWR0aDoxO2ZpbGw6bm9uZTt9I2dlTWVybWFpZE91dHB1dC0xNzUzMTEzMDU1OTI5IC5kYXNoZWQtbGluZXtzdHJva2UtZGFzaGFycmF5OjM7fSNnZU1lcm1haWRPdXRwdXQtMTc1MzExMzA1NTkyOSAuZG90dGVkLWxpbmV7c3Ryb2tlLWRhc2hhcnJheToxIDI7fSNnZU1lcm1haWRPdXRwdXQtMTc1MzExMzA1NTkyOSAjY29tcG9zaXRpb25TdGFydCwjZ2VNZXJtYWlkT3V0cHV0LTE3NTMxMTMwNTU5MjkgLmNvbXBvc2l0aW9ue2ZpbGw6IzY2NiFpbXBvcnRhbnQ7c3Ryb2tlOiM2NjYhaW1wb3J0YW50O3N0cm9rZS13aWR0aDoxO30jZ2VNZXJtYWlkT3V0cHV0LTE3NTMxMTMwNTU5MjkgI2NvbXBvc2l0aW9uRW5kLCNnZU1lcm1haWRPdXRwdXQtMTc1MzExMzA1NTkyOSAuY29tcG9zaXRpb257ZmlsbDojNjY2IWltcG9ydGFudDtzdHJva2U6IzY2NiFpbXBvcnRhbnQ7c3Ryb2tlLXdpZHRoOjE7fSNnZU1lcm1haWRPdXRwdXQtMTc1MzExMzA1NTkyOSAjZGVwZW5kZW5jeVN0YXJ0LCNnZU1lcm1haWRPdXRwdXQtMTc1MzExMzA1NTkyOSAuZGVwZW5kZW5jeXtmaWxsOiM2NjYhaW1wb3J0YW50O3N0cm9rZTojNjY2IWltcG9ydGFudDtzdHJva2Utd2lkdGg6MTt9I2dlTWVybWFpZE91dHB1dC0xNzUzMTEzMDU1OTI5ICNkZXBlbmRlbmN5U3RhcnQsI2dlTWVybWFpZE91dHB1dC0xNzUzMTEzMDU1OTI5IC5kZXBlbmRlbmN5e2ZpbGw6IzY2NiFpbXBvcnRhbnQ7c3Ryb2tlOiM2NjYhaW1wb3J0YW50O3N0cm9rZS13aWR0aDoxO30jZ2VNZXJtYWlkT3V0cHV0LTE3NTMxMTMwNTU5MjkgI2V4dGVuc2lvblN0YXJ0LCNnZU1lcm1haWRPdXRwdXQtMTc1MzExMzA1NTkyOSAuZXh0ZW5zaW9ue2ZpbGw6dHJhbnNwYXJlbnQhaW1wb3J0YW50O3N0cm9rZTojNjY2IWltcG9ydGFudDtzdHJva2Utd2lkdGg6MTt9I2dlTWVybWFpZE91dHB1dC0xNzUzMTEzMDU1OTI5ICNleHRlbnNpb25FbmQsI2dlTWVybWFpZE91dHB1dC0xNzUzMTEzMDU1OTI5IC5leHRlbnNpb257ZmlsbDp0cmFuc3BhcmVudCFpbXBvcnRhbnQ7c3Ryb2tlOiM2NjYhaW1wb3J0YW50O3N0cm9rZS13aWR0aDoxO30jZ2VNZXJtYWlkT3V0cHV0LTE3NTMxMTMwNTU5MjkgI2FnZ3JlZ2F0aW9uU3RhcnQsI2dlTWVybWFpZE91dHB1dC0xNzUzMTEzMDU1OTI5IC5hZ2dyZWdhdGlvbntmaWxsOnRyYW5zcGFyZW50IWltcG9ydGFudDtzdHJva2U6IzY2NiFpbXBvcnRhbnQ7c3Ryb2tlLXdpZHRoOjE7fSNnZU1lcm1haWRPdXRwdXQtMTc1MzExMzA1NTkyOSAjYWdncmVnYXRpb25FbmQsI2dlTWVybWFpZE91dHB1dC0xNzUzMTEzMDU1OTI5IC5hZ2dyZWdhdGlvbntmaWxsOnRyYW5zcGFyZW50IWltcG9ydGFudDtzdHJva2U6IzY2NiFpbXBvcnRhbnQ7c3Ryb2tlLXdpZHRoOjE7fSNnZU1lcm1haWRPdXRwdXQtMTc1MzExMzA1NTkyOSAjbG9sbGlwb3BTdGFydCwjZ2VNZXJtYWlkT3V0cHV0LTE3NTMxMTMwNTU5MjkgLmxvbGxpcG9we2ZpbGw6I2VlZSFpbXBvcnRhbnQ7c3Ryb2tlOiM2NjYhaW1wb3J0YW50O3N0cm9rZS13aWR0aDoxO30jZ2VNZXJtYWlkT3V0cHV0LTE3NTMxMTMwNTU5MjkgI2xvbGxpcG9wRW5kLCNnZU1lcm1haWRPdXRwdXQtMTc1MzExMzA1NTkyOSAubG9sbGlwb3B7ZmlsbDojZWVlIWltcG9ydGFudDtzdHJva2U6IzY2NiFpbXBvcnRhbnQ7c3Ryb2tlLXdpZHRoOjE7fSNnZU1lcm1haWRPdXRwdXQtMTc1MzExMzA1NTkyOSAuZWRnZVRlcm1pbmFsc3tmb250LXNpemU6MTFweDtsaW5lLWhlaWdodDppbml0aWFsO30jZ2VNZXJtYWlkT3V0cHV0LTE3NTMxMTMwNTU5MjkgLmNsYXNzVGl0bGVUZXh0e3RleHQtYW5jaG9yOm1pZGRsZTtmb250LXNpemU6MThweDtmaWxsOiMwMDAwMDA7fSNnZU1lcm1haWRPdXRwdXQtMTc1MzExMzA1NTkyOSA6cm9vdHstLW1lcm1haWQtZm9udC1mYW1pbHk6InRyZWJ1Y2hldCBtcyIsdmVyZGFuYSxhcmlhbCxzYW5zLXNlcmlmO308L3N0eWxlPjxnPjxkZWZzPjxtYXJrZXIgb3JpZW50PSJhdXRvIiBtYXJrZXJIZWlnaHQ9IjI0MCIgbWFya2VyV2lkdGg9IjE5MCIgcmVmWT0iNyIgcmVmWD0iMTgiIGNsYXNzPSJtYXJrZXIgYWdncmVnYXRpb24gY2xhc3MiIGlkPSJnZU1lcm1haWRPdXRwdXQtMTc1MzExMzA1NTkyOV9jbGFzcy1hZ2dyZWdhdGlvblN0YXJ0Ij48cGF0aCBkPSJNIDE4LDcgTDksMTMgTDEsNyBMOSwxIFoiPjwvcGF0aD48L21hcmtlcj48L2RlZnM+PGRlZnM+PG1hcmtlciBvcmllbnQ9ImF1dG8iIG1hcmtlckhlaWdodD0iMjgiIG1hcmtlcldpZHRoPSIyMCIgcmVmWT0iNyIgcmVmWD0iMSIgY2xhc3M9Im1hcmtlciBhZ2dyZWdhdGlvbiBjbGFzcyIgaWQ9ImdlTWVybWFpZE91dHB1dC0xNzUzMTEzMDU1OTI5X2NsYXNzLWFnZ3JlZ2F0aW9uRW5kIj48cGF0aCBkPSJNIDE4LDcgTDksMTMgTDEsNyBMOSwxIFoiPjwvcGF0aD48L21hcmtlcj48L2RlZnM+PGRlZnM+PG1hcmtlciBvcmllbnQ9ImF1dG8iIG1hcmtlckhlaWdodD0iMjQwIiBtYXJrZXJXaWR0aD0iMTkwIiByZWZZPSI3IiByZWZYPSIxOCIgY2xhc3M9Im1hcmtlciBleHRlbnNpb24gY2xhc3MiIGlkPSJnZU1lcm1haWRPdXRwdXQtMTc1MzExMzA1NTkyOV9jbGFzcy1leHRlbnNpb25TdGFydCI+PHBhdGggZD0iTSAxLDcgTDE4LDEzIFYgMSBaIj48L3BhdGg+PC9tYXJrZXI+PC9kZWZzPjxkZWZzPjxtYXJrZXIgb3JpZW50PSJhdXRvIiBtYXJrZXJIZWlnaHQ9IjI4IiBtYXJrZXJXaWR0aD0iMjAiIHJlZlk9IjciIHJlZlg9IjEiIGNsYXNzPSJtYXJrZXIgZXh0ZW5zaW9uIGNsYXNzIiBpZD0iZ2VNZXJtYWlkT3V0cHV0LTE3NTMxMTMwNTU5MjlfY2xhc3MtZXh0ZW5zaW9uRW5kIj48cGF0aCBkPSJNIDEsMSBWIDEzIEwxOCw3IFoiPjwvcGF0aD48L21hcmtlcj48L2RlZnM+PGRlZnM+PG1hcmtlciBvcmllbnQ9ImF1dG8iIG1hcmtlckhlaWdodD0iMjQwIiBtYXJrZXJXaWR0aD0iMTkwIiByZWZZPSI3IiByZWZYPSIxOCIgY2xhc3M9Im1hcmtlciBjb21wb3NpdGlvbiBjbGFzcyIgaWQ9ImdlTWVybWFpZE91dHB1dC0xNzUzMTEzMDU1OTI5X2NsYXNzLWNvbXBvc2l0aW9uU3RhcnQiPjxwYXRoIGQ9Ik0gMTgsNyBMOSwxMyBMMSw3IEw5LDEgWiI+PC9wYXRoPjwvbWFya2VyPjwvZGVmcz48ZGVmcz48bWFya2VyIG9yaWVudD0iYXV0byIgbWFya2VySGVpZ2h0PSIyOCIgbWFya2VyV2lkdGg9IjIwIiByZWZZPSI3IiByZWZYPSIxIiBjbGFzcz0ibWFya2VyIGNvbXBvc2l0aW9uIGNsYXNzIiBpZD0iZ2VNZXJtYWlkT3V0cHV0LTE3NTMxMTMwNTU5MjlfY2xhc3MtY29tcG9zaXRpb25FbmQiPjxwYXRoIGQ9Ik0gMTgsNyBMOSwxMyBMMSw3IEw5LDEgWiI+PC9wYXRoPjwvbWFya2VyPjwvZGVmcz48ZGVmcz48bWFya2VyIG9yaWVudD0iYXV0byIgbWFya2VySGVpZ2h0PSIyNDAiIG1hcmtlcldpZHRoPSIxOTAiIHJlZlk9IjciIHJlZlg9IjYiIGNsYXNzPSJtYXJrZXIgZGVwZW5kZW5jeSBjbGFzcyIgaWQ9ImdlTWVybWFpZE91dHB1dC0xNzUzMTEzMDU1OTI5X2NsYXNzLWRlcGVuZGVuY3lTdGFydCI+PHBhdGggZD0iTSA1LDcgTDksMTMgTDEsNyBMOSwxIFoiPjwvcGF0aD48L21hcmtlcj48L2RlZnM+PGRlZnM+PG1hcmtlciBvcmllbnQ9ImF1dG8iIG1hcmtlckhlaWdodD0iMjgiIG1hcmtlcldpZHRoPSIyMCIgcmVmWT0iNyIgcmVmWD0iMTMiIGNsYXNzPSJtYXJrZXIgZGVwZW5kZW5jeSBjbGFzcyIgaWQ9ImdlTWVybWFpZE91dHB1dC0xNzUzMTEzMDU1OTI5X2NsYXNzLWRlcGVuZGVuY3lFbmQiPjxwYXRoIGQ9Ik0gMTgsNyBMOSwxMyBMMTQsNyBMOSwxIFoiPjwvcGF0aD48L21hcmtlcj48L2RlZnM+PGRlZnM+PG1hcmtlciBvcmllbnQ9ImF1dG8iIG1hcmtlckhlaWdodD0iMjQwIiBtYXJrZXJXaWR0aD0iMTkwIiByZWZZPSI3IiByZWZYPSIxMyIgY2xhc3M9Im1hcmtlciBsb2xsaXBvcCBjbGFzcyIgaWQ9ImdlTWVybWFpZE91dHB1dC0xNzUzMTEzMDU1OTI5X2NsYXNzLWxvbGxpcG9wU3RhcnQiPjxjaXJjbGUgcj0iNiIgY3k9IjciIGN4PSI3IiBmaWxsPSJ0cmFuc3BhcmVudCIgc3Ryb2tlPSJibGFjayI+PC9jaXJjbGU+PC9tYXJrZXI+PC9kZWZzPjxkZWZzPjxtYXJrZXIgb3JpZW50PSJhdXRvIiBtYXJrZXJIZWlnaHQ9IjI0MCIgbWFya2VyV2lkdGg9IjE5MCIgcmVmWT0iNyIgcmVmWD0iMSIgY2xhc3M9Im1hcmtlciBsb2xsaXBvcCBjbGFzcyIgaWQ9ImdlTWVybWFpZE91dHB1dC0xNzUzMTEzMDU1OTI5X2NsYXNzLWxvbGxpcG9wRW5kIj48Y2lyY2xlIHI9IjYiIGN5PSI3IiBjeD0iNyIgZmlsbD0idHJhbnNwYXJlbnQiIHN0cm9rZT0iYmxhY2siPjwvY2lyY2xlPjwvbWFya2VyPjwvZGVmcz48ZyBjbGFzcz0icm9vdCI+PGcgY2xhc3M9ImNsdXN0ZXJzIj48L2c+PGcgY2xhc3M9ImVkZ2VQYXRocyI+PHBhdGggbWFya2VyLXN0YXJ0PSJ1cmwoI2dlTWVybWFpZE91dHB1dC0xNzUzMTEzMDU1OTI5X2NsYXNzLWV4dGVuc2lvblN0YXJ0KSIgc3R5bGU9IjsiIGNsYXNzPSJlZGdlLXRoaWNrbmVzcy1ub3JtYWwgZWRnZS1wYXR0ZXJuLWRhc2hlZCByZWxhdGlvbiIgaWQ9ImlkX0Rvb3JfV29vZGVuRG9vcl8xIiBkPSJNODYuODg3LDU5My41OTlMODQuNDE4LDU5Ny4xNjZDODEuOTQ4LDYwMC43MzIsNzcuMDA4LDYwNy44NjYsNzQuNTM5LDYxNy40NjZDNzIuMDY5LDYyNy4wNjcsNzIuMDY5LDYzOS4xMzMsNzIuMDY5LDY0NS4xNjdMNzIuMDY5LDY1MS4yIj48L3BhdGg+PHBhdGggbWFya2VyLXN0YXJ0PSJ1cmwoI2dlTWVybWFpZE91dHB1dC0xNzUzMTEzMDU1OTI5X2NsYXNzLWV4dGVuc2lvblN0YXJ0KSIgc3R5bGU9IjsiIGNsYXNzPSJlZGdlLXRoaWNrbmVzcy1ub3JtYWwgZWRnZS1wYXR0ZXJuLWRhc2hlZCByZWxhdGlvbiIgaWQ9ImlkX0Rvb3JfSXJvbkRvb3JfMiIgZD0iTTIyNy44NjMsNTkzLjU5OUwyMzAuMzMyLDU5Ny4xNjZDMjMyLjgwMiw2MDAuNzMyLDIzNy43NDIsNjA3Ljg2NiwyNDAuMjExLDYxNy40NjZDMjQyLjY4MSw2MjcuMDY3LDI0Mi42ODEsNjM5LjEzMywyNDIuNjgxLDY0NS4xNjdMMjQyLjY4MSw2NTEuMiI+PC9wYXRoPjxwYXRoIG1hcmtlci1lbmQ9InVybCgjZ2VNZXJtYWlkT3V0cHV0LTE3NTMxMTMwNTU5MjlfY2xhc3MtZGVwZW5kZW5jeUVuZCkiIHN0eWxlPSI7IiBjbGFzcz0iZWRnZS10aGlja25lc3Mtbm9ybWFsIGVkZ2UtcGF0dGVybi1zb2xpZCByZWxhdGlvbiIgaWQ9ImlkX0Rvb3JGYWN0b3J5X0Rvb3JfMyIgZD0iTTE1Ny4zNzUsMzMyLjRMMTU3LjM3NSwzMzguNDMzQzE1Ny4zNzUsMzQ0LjQ2NywxNTcuMzc1LDM1Ni41MzMsMTU3LjM3NSwzNjcuNkMxNTcuMzc1LDM3OC42NjcsMTU3LjM3NSwzODguNzMzLDE1Ny4zNzUsMzkzLjc2N0wxNTcuMzc1LDM5OC44Ij48L3BhdGg+PHBhdGggbWFya2VyLWVuZD0idXJsKCNnZU1lcm1haWRPdXRwdXQtMTc1MzExMzA1NTkyOV9jbGFzcy1kZXBlbmRlbmN5RW5kKSIgc3R5bGU9IjsiIGNsYXNzPSJlZGdlLXRoaWNrbmVzcy1ub3JtYWwgZWRnZS1wYXR0ZXJuLXNvbGlkIHJlbGF0aW9uIiBpZD0iaWRfU2ltcGxlRmFjdG9yeURQX0Rvb3JGYWN0b3J5XzQiIGQ9Ik0xNTcuMzc1LDEzNEwxNTcuMzc1LDE0MC4wMzNDMTU3LjM3NSwxNDYuMDY3LDE1Ny4zNzUsMTU4LjEzMywxNTcuMzc1LDE2OS4yQzE1Ny4zNzUsMTgwLjI2NywxNTcuMzc1LDE5MC4zMzMsMTU3LjM3NSwxOTUuMzY3TDE1Ny4zNzUsMjAwLjQiPjwvcGF0aD48L2c+PGcgY2xhc3M9ImVkZ2VMYWJlbHMiPjxnIHRyYW5zZm9ybT0idHJhbnNsYXRlKDcyLjA2ODc1NjEwMzUxNTYyLCA2MTQuOTk5OTk5MDQ2MzI1NykiIGNsYXNzPSJlZGdlTGFiZWwiPjxnIHRyYW5zZm9ybT0idHJhbnNsYXRlKC00My44ODc1MDA3NjI5Mzk0NSwgLTExLjE5OTk5OTgwOTI2NTEzNykiIGNsYXNzPSJsYWJlbCI+PGc+PHJlY3QgaGVpZ2h0PSIyMi4zOTk5OTk2MTg1MzAyNzMiIHdpZHRoPSI4Ny43NzUwMDE1MjU4Nzg5IiB5PSItMS4xOTk5OTk5ODgwNzkwNzEiIHg9Ii0yIiBzdHlsZT0iO2Rpc3BsYXk6IGlubGluZS1ibG9jayIgY2xhc3M9ImJhY2tncm91bmQiPjwvcmVjdD48dGV4dCBzdHlsZT0iO2Rpc3BsYXk6IGlubGluZS1ibG9jayIgeT0iLTEwLjEiPjx0c3BhbiBkeT0iMS4xZW0iIHk9Ii0wLjFlbSIgeD0iMCIgY2xhc3M9InRleHQtb3V0ZXItdHNwYW4iPjx0c3BhbiBmb250LXdlaWdodD0ibm9ybWFsIiBjbGFzcz0idGV4dC1pbm5lci10c3BhbiIgZm9udC1zdHlsZT0ibm9ybWFsIj5pbXBsZW1lbnRzPC90c3Bhbj48L3RzcGFuPjwvdGV4dD48L2c+PC9nPjwvZz48ZyB0cmFuc2Zvcm09InRyYW5zbGF0ZSgyNDIuNjgxMjYyOTY5OTcwNywgNjE0Ljk5OTk5OTA0NjMyNTcpIiBjbGFzcz0iZWRnZUxhYmVsIj48ZyB0cmFuc2Zvcm09InRyYW5zbGF0ZSgtNDMuODg3NTAwNzYyOTM5NDUsIC0xMS4xOTk5OTk4MDkyNjUxMzcpIiBjbGFzcz0ibGFiZWwiPjxnPjxyZWN0IGhlaWdodD0iMjIuMzk5OTk5NjE4NTMwMjczIiB3aWR0aD0iODcuNzc1MDAxNTI1ODc4OSIgeT0iLTEuMTk5OTk5OTg4MDc5MDcxIiB4PSItMiIgc3R5bGU9IjtkaXNwbGF5OiBpbmxpbmUtYmxvY2siIGNsYXNzPSJiYWNrZ3JvdW5kIj48L3JlY3Q+PHRleHQgc3R5bGU9IjtkaXNwbGF5OiBpbmxpbmUtYmxvY2siIHk9Ii0xMC4xIj48dHNwYW4gZHk9IjEuMWVtIiB5PSItMC4xZW0iIHg9IjAiIGNsYXNzPSJ0ZXh0LW91dGVyLXRzcGFuIj48dHNwYW4gZm9udC13ZWlnaHQ9Im5vcm1hbCIgY2xhc3M9InRleHQtaW5uZXItdHNwYW4iIGZvbnQtc3R5bGU9Im5vcm1hbCI+aW1wbGVtZW50czwvdHNwYW4+PC90c3Bhbj48L3RleHQ+PC9nPjwvZz48L2c+PGcgdHJhbnNmb3JtPSJ0cmFuc2xhdGUoMTU3LjM3NTAwOTUzNjc0MzE2LCAzNjguNTk5OTk5NDI3Nzk1NCkiIGNsYXNzPSJlZGdlTGFiZWwiPjxnIHRyYW5zZm9ybT0idHJhbnNsYXRlKC0yOC40MTI1MDAzODE0Njk3MjcsIC0xMS4xOTk5OTk4MDkyNjUxMzcpIiBjbGFzcz0ibGFiZWwiPjxnPjxyZWN0IGhlaWdodD0iMjIuMzk5OTk5NjE4NTMwMjczIiB3aWR0aD0iNTYuODI1MDAwNzYyOTM5NDUiIHk9Ii0xLjE5OTk5OTk4ODA3OTA3MSIgeD0iLTIiIHN0eWxlPSI7ZGlzcGxheTogaW5saW5lLWJsb2NrIiBjbGFzcz0iYmFja2dyb3VuZCI+PC9yZWN0Pjx0ZXh0IHN0eWxlPSI7ZGlzcGxheTogaW5saW5lLWJsb2NrIiB5PSItMTAuMSI+PHRzcGFuIGR5PSIxLjFlbSIgeT0iLTAuMWVtIiB4PSIwIiBjbGFzcz0idGV4dC1vdXRlci10c3BhbiI+PHRzcGFuIGZvbnQtd2VpZ2h0PSJub3JtYWwiIGNsYXNzPSJ0ZXh0LWlubmVyLXRzcGFuIiBmb250LXN0eWxlPSJub3JtYWwiPmNyZWF0ZXM8L3RzcGFuPjwvdHNwYW4+PC90ZXh0PjwvZz48L2c+PC9nPjxnIHRyYW5zZm9ybT0idHJhbnNsYXRlKDE1Ny4zNzUwMDk1MzY3NDMxNiwgMTcwLjE5OTk5OTgwOTI2NTE0KSIgY2xhc3M9ImVkZ2VMYWJlbCI+PGcgdHJhbnNmb3JtPSJ0cmFuc2xhdGUoLTE3LjIxMjQ5OTYxODUzMDI3MywgLTExLjE5OTk5OTgwOTI2NTEzNykiIGNsYXNzPSJsYWJlbCI+PGc+PHJlY3QgaGVpZ2h0PSIyMi4zOTk5OTk2MTg1MzAyNzMiIHdpZHRoPSIzNC40MjUwMDExNDQ0MDkxOCIgeT0iLTEuMTk5OTk5OTg4MDc5MDcxIiB4PSItMiIgc3R5bGU9IjtkaXNwbGF5OiBpbmxpbmUtYmxvY2siIGNsYXNzPSJiYWNrZ3JvdW5kIj48L3JlY3Q+PHRleHQgc3R5bGU9IjtkaXNwbGF5OiBpbmxpbmUtYmxvY2siIHk9Ii0xMC4xIj48dHNwYW4gZHk9IjEuMWVtIiB5PSItMC4xZW0iIHg9IjAiIGNsYXNzPSJ0ZXh0LW91dGVyLXRzcGFuIj48dHNwYW4gZm9udC13ZWlnaHQ9Im5vcm1hbCIgY2xhc3M9InRleHQtaW5uZXItdHNwYW4iIGZvbnQtc3R5bGU9Im5vcm1hbCI+dXNlczwvdHNwYW4+PC90c3Bhbj48L3RleHQ+PC9nPjwvZz48L2c+PC9nPjxnIGNsYXNzPSJub2RlcyI+PGcgdHJhbnNmb3JtPSJ0cmFuc2xhdGUoMTU3LjM3NTAwOTUzNjc0MzE2LCA0OTEuNzk5OTk5MjM3MDYwNTUpIiBpZD0iY2xhc3NJZC1Eb29yLTAiIGNsYXNzPSJub2RlIGRlZmF1bHQiPjxnIGNsYXNzPSJiYXNpYyBsYWJlbC1jb250YWluZXIiPjxwYXRoIHN0eWxlPSIiIGZpbGw9IiNlZWUiIHN0cm9rZS13aWR0aD0iMCIgc3Ryb2tlPSJub25lIiBkPSJNLTYwLjg3NSAtODcgTDYwLjg3NSAtODcgTDYwLjg3NSA4NyBMLTYwLjg3NSA4NyI+PC9wYXRoPjxwYXRoIHN0eWxlPSIiIGZpbGw9Im5vbmUiIHN0cm9rZS13aWR0aD0iMS4zIiBzdHJva2U9IiM5OTkiIGQ9Ik0tNjAuODc1IC04NyBDLTMyLjY4NDI3NTgyMzk4MTUyIC04NywgLTQuNDkzNTUxNjQ3OTYzMDUyIC04NywgNjAuODc1IC04NyBNLTYwLjg3NSAtODcgQy0yOC42NzA1NDc4MjA0NzEzNjMgLTg3LCAzLjUzMzkwNDM1OTA1NzI3NDMgLTg3LCA2MC44NzUgLTg3IE02MC44NzUgLTg3IEM2MC44NzUgLTM3LjUyODQ4NjU1NzA0MDgzNiwgNjAuODc1IDExLjk0MzAyNjg4NTkxODMyOSwgNjAuODc1IDg3IE02MC44NzUgLTg3IEM2MC44NzUgLTM1LjA2MjkwNTUyNzcxMjgyLCA2MC44NzUgMTYuODc0MTg4OTQ0NTc0MzU3LCA2MC44NzUgODcgTTYwLjg3NSA4NyBDMzQuMzgzMjM2MTEzNDEzMzIgODcsIDcuODkxNDcyMjI2ODI2NjI5IDg3LCAtNjAuODc1IDg3IE02MC44NzUgODcgQzI4LjkzMDE4ODQ5NTYyNDg3NiA4NywgLTMuMDE0NjIzMDA4NzUwMjQ5IDg3LCAtNjAuODc1IDg3IE0tNjAuODc1IDg3IEMtNjAuODc1IDE4LjQzNjY3OTA2NTExNDIwNSwgLTYwLjg3NSAtNTAuMTI2NjQxODY5NzcxNTksIC02MC44NzUgLTg3IE0tNjAuODc1IDg3IEMtNjAuODc1IDIyLjY3NjY3Mzg4OTE1OTk0MywgLTYwLjg3NSAtNDEuNjQ2NjUyMjIxNjgwMTE0LCAtNjAuODc1IC04NyI+PC9wYXRoPjwvZz48ZyB0cmFuc2Zvcm09InRyYW5zbGF0ZSgtNDEuMTc0OTk5MjM3MDYwNTUsIC02MykiIGNsYXNzPSJhbm5vdGF0aW9uLWdyb3VwIHRleHQiPjxnIHRyYW5zZm9ybT0idHJhbnNsYXRlKDAsLTEyKSIgc3R5bGU9IiIgY2xhc3M9ImxhYmVsIj48Zm9yZWlnbk9iamVjdCBoZWlnaHQ9IjI0IiB3aWR0aD0iODIuMzQ5OTk4NDc0MTIxMSI+PGRpdiBzdHlsZT0iZGlzcGxheTogdGFibGUtY2VsbDsgd2hpdGUtc3BhY2U6IG5vd3JhcDsgbGluZS1oZWlnaHQ6IDEuNTsgbWF4LXdpZHRoOiAxMjdweDsgdGV4dC1hbGlnbjogY2VudGVyOyIgeG1sbnM9Imh0dHA6Ly93d3cudzMub3JnLzE5OTkveGh0bWwiPjxzcGFuIHN0eWxlPSIiIGNsYXNzPSJub2RlTGFiZWwgbWFya2Rvd24tbm9kZS1sYWJlbCI+PHA+wqtpbnRlcmZhY2XCuzwvcD48L3NwYW4+PC9kaXY+PC9mb3JlaWduT2JqZWN0PjwvZz48L2c+PGcgdHJhbnNmb3JtPSJ0cmFuc2xhdGUoLTE3LjYxODc0OTYxODUzMDI3MywgLTM5KSIgY2xhc3M9ImxhYmVsLWdyb3VwIHRleHQiPjxnIHRyYW5zZm9ybT0idHJhbnNsYXRlKDAsLTEyKSIgc3R5bGU9ImZvbnQtd2VpZ2h0OiBib2xkZXIiIGNsYXNzPSJsYWJlbCI+PGZvcmVpZ25PYmplY3QgaGVpZ2h0PSIyNCIgd2lkdGg9IjM1LjIzNzQ5OTIzNzA2MDU1Ij48ZGl2IHN0eWxlPSJkaXNwbGF5OiB0YWJsZS1jZWxsOyB3aGl0ZS1zcGFjZTogbm93cmFwOyBsaW5lLWhlaWdodDogMS41OyBtYXgtd2lkdGg6IDg2cHg7IHRleHQtYWxpZ246IGNlbnRlcjsiIHhtbG5zPSJodHRwOi8vd3d3LnczLm9yZy8xOTk5L3hodG1sIj48c3BhbiBzdHlsZT0iIiBjbGFzcz0ibm9kZUxhYmVsIG1hcmtkb3duLW5vZGUtbGFiZWwiPjxwPkRvb3I8L3A+PC9zcGFuPjwvZGl2PjwvZm9yZWlnbk9iamVjdD48L2c+PC9nPjxnIHRyYW5zZm9ybT0idHJhbnNsYXRlKC00OC44NzUsIDkpIiBjbGFzcz0ibWVtYmVycy1ncm91cCB0ZXh0Ij48L2c+PGcgdHJhbnNmb3JtPSJ0cmFuc2xhdGUoLTQ4Ljg3NSwgMzkpIiBjbGFzcz0ibWV0aG9kcy1ncm91cCB0ZXh0Ij48ZyB0cmFuc2Zvcm09InRyYW5zbGF0ZSgwLC0xMikiIHN0eWxlPSIiIGNsYXNzPSJsYWJlbCI+PGZvcmVpZ25PYmplY3QgaGVpZ2h0PSIyNCIgd2lkdGg9IjU1LjExMjQ5OTIzNzA2MDU1Ij48ZGl2IHN0eWxlPSJkaXNwbGF5OiB0YWJsZS1jZWxsOyB3aGl0ZS1zcGFjZTogbm93cmFwOyBsaW5lLWhlaWdodDogMS41OyBtYXgtd2lkdGg6IDExNHB4OyB0ZXh0LWFsaWduOiBjZW50ZXI7IiB4bWxucz0iaHR0cDovL3d3dy53My5vcmcvMTk5OS94aHRtbCI+PHNwYW4gc3R5bGU9IiIgY2xhc3M9Im5vZGVMYWJlbCBtYXJrZG93bi1ub2RlLWxhYmVsIj48cD4rb3BlbigpPC9wPjwvc3Bhbj48L2Rpdj48L2ZvcmVpZ25PYmplY3Q+PC9nPjxnIHRyYW5zZm9ybT0idHJhbnNsYXRlKDAsMTIpIiBzdHlsZT0iIiBjbGFzcz0ibGFiZWwiPjxmb3JlaWduT2JqZWN0IGhlaWdodD0iMjQiIHdpZHRoPSI1Ni41NzUwMDA3NjI5Mzk0NSI+PGRpdiBzdHlsZT0iZGlzcGxheTogdGFibGUtY2VsbDsgd2hpdGUtc3BhY2U6IG5vd3JhcDsgbGluZS1oZWlnaHQ6IDEuNTsgbWF4LXdpZHRoOiAxMTNweDsgdGV4dC1hbGlnbjogY2VudGVyOyIgeG1sbnM9Imh0dHA6Ly93d3cudzMub3JnLzE5OTkveGh0bWwiPjxzcGFuIHN0eWxlPSIiIGNsYXNzPSJub2RlTGFiZWwgbWFya2Rvd24tbm9kZS1sYWJlbCI+PHA+K2Nsb3NlKCk8L3A+PC9zcGFuPjwvZGl2PjwvZm9yZWlnbk9iamVjdD48L2c+PC9nPjxnIHN0eWxlPSIiIGNsYXNzPSJkaXZpZGVyIj48cGF0aCBzdHlsZT0iIiBmaWxsPSJub25lIiBzdHJva2Utd2lkdGg9IjEuMyIgc3Ryb2tlPSIjOTk5IiBkPSJNLTYwLjg3NSAtMTUgQy0yMS43Njk2NzgwNjMwMDYwMjYgLTE1LCAxNy4zMzU2NDM4NzM5ODc5NDggLTE1LCA2MC44NzUgLTE1IE0tNjAuODc1IC0xNSBDLTE3LjY3MTM0OTUzNzIwNzIzNCAtMTUsIDI1LjUzMjMwMDkyNTU4NTUzIC0xNSwgNjAuODc1IC0xNSI+PC9wYXRoPjwvZz48ZyBzdHlsZT0iIiBjbGFzcz0iZGl2aWRlciI+PHBhdGggc3R5bGU9IiIgZmlsbD0ibm9uZSIgc3Ryb2tlLXdpZHRoPSIxLjMiIHN0cm9rZT0iIzk5OSIgZD0iTS02MC44NzUgOSBDLTE4LjIzNzQ2NTI4Mzc0NjE2IDksIDI0LjQwMDA2OTQzMjUwNzY3OCA5LCA2MC44NzUgOSBNLTYwLjg3NSA5IEMtMTIuNDYzNzg5MTk2MDMwOTM3IDksIDM1Ljk0NzQyMTYwNzkzODEyNSA5LCA2MC44NzUgOSI+PC9wYXRoPjwvZz48L2c+PGcgdHJhbnNmb3JtPSJ0cmFuc2xhdGUoNzIuMDY4NzU2MTAzNTE1NjIsIDcyNi4xOTk5OTg4NTU1OTA4KSIgaWQ9ImNsYXNzSWQtV29vZGVuRG9vci0xIiBjbGFzcz0ibm9kZSBkZWZhdWx0Ij48ZyBjbGFzcz0iYmFzaWMgbGFiZWwtY29udGFpbmVyIj48cGF0aCBzdHlsZT0iIiBmaWxsPSIjZWVlIiBzdHJva2Utd2lkdGg9IjAiIHN0cm9rZT0ibm9uZSIgZD0iTS02NC4wNjg3NTIyODg4MTgzNiAtNzUgTDY0LjA2ODc1MjI4ODgxODM2IC03NSBMNjQuMDY4NzUyMjg4ODE4MzYgNzUgTC02NC4wNjg3NTIyODg4MTgzNiA3NSI+PC9wYXRoPjxwYXRoIHN0eWxlPSIiIGZpbGw9Im5vbmUiIHN0cm9rZS13aWR0aD0iMS4zIiBzdHJva2U9IiM5OTkiIGQ9Ik0tNjQuMDY4NzUyMjg4ODE4MzYgLTc1IEMtMTIuOTQ3NjYwNTA3NTA2MTA3IC03NSwgMzguMTczNDMxMjczODA2MTQ1IC03NSwgNjQuMDY4NzUyMjg4ODE4MzYgLTc1IE0tNjQuMDY4NzUyMjg4ODE4MzYgLTc1IEMtMTguMTIyNTAyNDkzNDAzNjYgLTc1LCAyNy44MjM3NDczMDIwMTEwNDMgLTc1LCA2NC4wNjg3NTIyODg4MTgzNiAtNzUgTTY0LjA2ODc1MjI4ODgxODM2IC03NSBDNjQuMDY4NzUyMjg4ODE4MzYgLTE1LjAxMzkxMjIwNjExMzk0MywgNjQuMDY4NzUyMjg4ODE4MzYgNDQuOTcyMTc1NTg3NzcyMTE0LCA2NC4wNjg3NTIyODg4MTgzNiA3NSBNNjQuMDY4NzUyMjg4ODE4MzYgLTc1IEM2NC4wNjg3NTIyODg4MTgzNiAtMTkuODI1ODMwMDY5NTE3MDc1LCA2NC4wNjg3NTIyODg4MTgzNiAzNS4zNDgzMzk4NjA5NjU4NSwgNjQuMDY4NzUyMjg4ODE4MzYgNzUgTTY0LjA2ODc1MjI4ODgxODM2IDc1IEMxOS4wODE5NTY5MTAyODQxNCA3NSwgLTI1LjkwNDgzODQ2ODI1MDA3NyA3NSwgLTY0LjA2ODc1MjI4ODgxODM2IDc1IE02NC4wNjg3NTIyODg4MTgzNiA3NSBDMzEuODAyMjE3MzU5MjgwNzggNzUsIC0wLjQ2NDMxNzU3MDI1Njc5NTkgNzUsIC02NC4wNjg3NTIyODg4MTgzNiA3NSBNLTY0LjA2ODc1MjI4ODgxODM2IDc1IEMtNjQuMDY4NzUyMjg4ODE4MzYgMjQuMjUwMDQ2MTIzODEzMjc3LCAtNjQuMDY4NzUyMjg4ODE4MzYgLTI2LjQ5OTkwNzc1MjM3MzQ0NiwgLTY0LjA2ODc1MjI4ODgxODM2IC03NSBNLTY0LjA2ODc1MjI4ODgxODM2IDc1IEMtNjQuMDY4NzUyMjg4ODE4MzYgMTguODczODU2NTAyNzczMzkzLCAtNjQuMDY4NzUyMjg4ODE4MzYgLTM3LjI1MjI4Njk5NDQ1MzIxNSwgLTY0LjA2ODc1MjI4ODgxODM2IC03NSI+PC9wYXRoPjwvZz48ZyB0cmFuc2Zvcm09InRyYW5zbGF0ZSgwLCAtNTEpIiBjbGFzcz0iYW5ub3RhdGlvbi1ncm91cCB0ZXh0Ij48L2c+PGcgdHJhbnNmb3JtPSJ0cmFuc2xhdGUoLTQ3LjU2MjUsIC01MSkiIGNsYXNzPSJsYWJlbC1ncm91cCB0ZXh0Ij48ZyB0cmFuc2Zvcm09InRyYW5zbGF0ZSgwLC0xMikiIHN0eWxlPSJmb250LXdlaWdodDogYm9sZGVyIiBjbGFzcz0ibGFiZWwiPjxmb3JlaWduT2JqZWN0IGhlaWdodD0iMjQiIHdpZHRoPSI5NS4xMjUiPjxkaXYgc3R5bGU9ImRpc3BsYXk6IHRhYmxlLWNlbGw7IHdoaXRlLXNwYWNlOiBub3dyYXA7IGxpbmUtaGVpZ2h0OiAxLjU7IG1heC13aWR0aDogMTQ3cHg7IHRleHQtYWxpZ246IGNlbnRlcjsiIHhtbG5zPSJodHRwOi8vd3d3LnczLm9yZy8xOTk5L3hodG1sIj48c3BhbiBzdHlsZT0iIiBjbGFzcz0ibm9kZUxhYmVsIG1hcmtkb3duLW5vZGUtbGFiZWwiPjxwPldvb2RlbkRvb3I8L3A+PC9zcGFuPjwvZGl2PjwvZm9yZWlnbk9iamVjdD48L2c+PC9nPjxnIHRyYW5zZm9ybT0idHJhbnNsYXRlKC01Mi4wNjg3NTIyODg4MTgzNiwgLTMpIiBjbGFzcz0ibWVtYmVycy1ncm91cCB0ZXh0Ij48L2c+PGcgdHJhbnNmb3JtPSJ0cmFuc2xhdGUoLTUyLjA2ODc1MjI4ODgxODM2LCAyNykiIGNsYXNzPSJtZXRob2RzLWdyb3VwIHRleHQiPjxnIHRyYW5zZm9ybT0idHJhbnNsYXRlKDAsLTEyKSIgc3R5bGU9IiIgY2xhc3M9ImxhYmVsIj48Zm9yZWlnbk9iamVjdCBoZWlnaHQ9IjI0IiB3aWR0aD0iNTUuMTEyNDk5MjM3MDYwNTUiPjxkaXYgc3R5bGU9ImRpc3BsYXk6IHRhYmxlLWNlbGw7IHdoaXRlLXNwYWNlOiBub3dyYXA7IGxpbmUtaGVpZ2h0OiAxLjU7IG1heC13aWR0aDogMTE0cHg7IHRleHQtYWxpZ246IGNlbnRlcjsiIHhtbG5zPSJodHRwOi8vd3d3LnczLm9yZy8xOTk5L3hodG1sIj48c3BhbiBzdHlsZT0iIiBjbGFzcz0ibm9kZUxhYmVsIG1hcmtkb3duLW5vZGUtbGFiZWwiPjxwPitvcGVuKCk8L3A+PC9zcGFuPjwvZGl2PjwvZm9yZWlnbk9iamVjdD48L2c+PGcgdHJhbnNmb3JtPSJ0cmFuc2xhdGUoMCwxMikiIHN0eWxlPSIiIGNsYXNzPSJsYWJlbCI+PGZvcmVpZ25PYmplY3QgaGVpZ2h0PSIyNCIgd2lkdGg9IjU2LjU3NTAwMDc2MjkzOTQ1Ij48ZGl2IHN0eWxlPSJkaXNwbGF5OiB0YWJsZS1jZWxsOyB3aGl0ZS1zcGFjZTogbm93cmFwOyBsaW5lLWhlaWdodDogMS41OyBtYXgtd2lkdGg6IDExM3B4OyB0ZXh0LWFsaWduOiBjZW50ZXI7IiB4bWxucz0iaHR0cDovL3d3dy53My5vcmcvMTk5OS94aHRtbCI+PHNwYW4gc3R5bGU9IiIgY2xhc3M9Im5vZGVMYWJlbCBtYXJrZG93bi1ub2RlLWxhYmVsIj48cD4rY2xvc2UoKTwvcD48L3NwYW4+PC9kaXY+PC9mb3JlaWduT2JqZWN0PjwvZz48L2c+PGcgc3R5bGU9IiIgY2xhc3M9ImRpdmlkZXIiPjxwYXRoIHN0eWxlPSIiIGZpbGw9Im5vbmUiIHN0cm9rZS13aWR0aD0iMS4zIiBzdHJva2U9IiM5OTkiIGQ9Ik0tNjQuMDY4NzU2MTAzNTE1NjIgLTI3IEMtMjUuMjg5ODQ4MDY4NjkxNzI1IC0yNywgMTMuNDg5MDU5OTY2MTMyMTc0IC0yNywgNjQuMDY4NzU2MTAzNTE1NjIgLTI3IE0tNjQuMDY4NzU2MTAzNTE1NjIgLTI3IEMtMjEuMzk3ODc4NDg0Njc5NjQ0IC0yNywgMjEuMjcyOTk5MTM0MTU2MzM2IC0yNywgNjQuMDY4NzU2MTAzNTE1NjIgLTI3Ij48L3BhdGg+PC9nPjxnIHN0eWxlPSIiIGNsYXNzPSJkaXZpZGVyIj48cGF0aCBzdHlsZT0iIiBmaWxsPSJub25lIiBzdHJva2Utd2lkdGg9IjEuMyIgc3Ryb2tlPSIjOTk5IiBkPSJNLTY0LjA2ODc1NjEwMzUxNTYyIC0zIEMtMzUuNTc1ODUyNzM2MzgyOTMgLTMsIC03LjA4Mjk0OTM2OTI1MDIzNyAtMywgNjQuMDY4NzU2MTAzNTE1NjIgLTMgTS02NC4wNjg3NTYxMDM1MTU2MiAtMyBDLTI4LjcwNDM4NzkzMDAyMzMgLTMsIDYuNjU5OTgwMjQzNDY5MDIyIC0zLCA2NC4wNjg3NTYxMDM1MTU2MiAtMyI+PC9wYXRoPjwvZz48L2c+PGcgdHJhbnNmb3JtPSJ0cmFuc2xhdGUoMjQyLjY4MTI2Mjk2OTk3MDcsIDcyNi4xOTk5OTg4NTU1OTA4KSIgaWQ9ImNsYXNzSWQtSXJvbkRvb3ItMiIgY2xhc3M9Im5vZGUgZGVmYXVsdCI+PGcgY2xhc3M9ImJhc2ljIGxhYmVsLWNvbnRhaW5lciI+PHBhdGggc3R5bGU9IiIgZmlsbD0iI2VlZSIgc3Ryb2tlLXdpZHRoPSIwIiBzdHJva2U9Im5vbmUiIGQ9Ik0tNTYuNTQzNzUwNzYyOTM5NDUgLTc1IEw1Ni41NDM3NTA3NjI5Mzk0NSAtNzUgTDU2LjU0Mzc1MDc2MjkzOTQ1IDc1IEwtNTYuNTQzNzUwNzYyOTM5NDUgNzUiPjwvcGF0aD48cGF0aCBzdHlsZT0iIiBmaWxsPSJub25lIiBzdHJva2Utd2lkdGg9IjEuMyIgc3Ryb2tlPSIjOTk5IiBkPSJNLTU2LjU0Mzc1MDc2MjkzOTQ1IC03NSBDLTIwLjA5NTY5MzQwNzIwMjQwNCAtNzUsIDE2LjM1MjM2Mzk0ODUzNDY0NSAtNzUsIDU2LjU0Mzc1MDc2MjkzOTQ1IC03NSBNLTU2LjU0Mzc1MDc2MjkzOTQ1IC03NSBDLTI0LjM5NTIxODI2NDM3MzYzMiAtNzUsIDcuNzUzMzE0MjM0MTkyMTg5IC03NSwgNTYuNTQzNzUwNzYyOTM5NDUgLTc1IE01Ni41NDM3NTA3NjI5Mzk0NSAtNzUgQzU2LjU0Mzc1MDc2MjkzOTQ1IC0zNC4yMDAwODkwMTgyOTU4NSwgNTYuNTQzNzUwNzYyOTM5NDUgNi41OTk4MjE5NjM0MDgzMDMsIDU2LjU0Mzc1MDc2MjkzOTQ1IDc1IE01Ni41NDM3NTA3NjI5Mzk0NSAtNzUgQzU2LjU0Mzc1MDc2MjkzOTQ1IC0zNC4xOTIwODgzODUzMzc0OSwgNTYuNTQzNzUwNzYyOTM5NDUgNi42MTU4MjMyMjkzMjUwMTY1LCA1Ni41NDM3NTA3NjI5Mzk0NSA3NSBNNTYuNTQzNzUwNzYyOTM5NDUgNzUgQzIyLjkwNzE0NDc1MjYwMzc2MyA3NSwgLTEwLjcyOTQ2MTI1NzczMTkyNyA3NSwgLTU2LjU0Mzc1MDc2MjkzOTQ1IDc1IE01Ni41NDM3NTA3NjI5Mzk0NSA3NSBDMjQuMzE3NTM2MDY2NTkzNzQ2IDc1LCAtNy45MDg2Nzg2Mjk3NTE5NjEgNzUsIC01Ni41NDM3NTA3NjI5Mzk0NSA3NSBNLTU2LjU0Mzc1MDc2MjkzOTQ1IDc1IEMtNTYuNTQzNzUwNzYyOTM5NDUgMzguOTkzNDU4MDUyOTc0NTc0LCAtNTYuNTQzNzUwNzYyOTM5NDUgMi45ODY5MTYxMDU5NDkxNDksIC01Ni41NDM3NTA3NjI5Mzk0NSAtNzUgTS01Ni41NDM3NTA3NjI5Mzk0NSA3NSBDLTU2LjU0Mzc1MDc2MjkzOTQ1IDI5Ljg0NTI3OTg0NTc1NTAyMywgLTU2LjU0Mzc1MDc2MjkzOTQ1IC0xNS4zMDk0NDAzMDg0ODk5NTQsIC01Ni41NDM3NTA3NjI5Mzk0NSAtNzUiPjwvcGF0aD48L2c+PGcgdHJhbnNmb3JtPSJ0cmFuc2xhdGUoMCwgLTUxKSIgY2xhc3M9ImFubm90YXRpb24tZ3JvdXAgdGV4dCI+PC9nPjxnIHRyYW5zZm9ybT0idHJhbnNsYXRlKC0zMi41MTI1MDA3NjI5Mzk0NSwgLTUxKSIgY2xhc3M9ImxhYmVsLWdyb3VwIHRleHQiPjxnIHRyYW5zZm9ybT0idHJhbnNsYXRlKDAsLTEyKSIgc3R5bGU9ImZvbnQtd2VpZ2h0OiBib2xkZXIiIGNsYXNzPSJsYWJlbCI+PGZvcmVpZ25PYmplY3QgaGVpZ2h0PSIyNCIgd2lkdGg9IjY1LjAyNTAwMTUyNTg3ODkiPjxkaXYgc3R5bGU9ImRpc3BsYXk6IHRhYmxlLWNlbGw7IHdoaXRlLXNwYWNlOiBub3dyYXA7IGxpbmUtaGVpZ2h0OiAxLjU7IG1heC13aWR0aDogMTE1cHg7IHRleHQtYWxpZ246IGNlbnRlcjsiIHhtbG5zPSJodHRwOi8vd3d3LnczLm9yZy8xOTk5L3hodG1sIj48c3BhbiBzdHlsZT0iIiBjbGFzcz0ibm9kZUxhYmVsIG1hcmtkb3duLW5vZGUtbGFiZWwiPjxwPklyb25Eb29yPC9wPjwvc3Bhbj48L2Rpdj48L2ZvcmVpZ25PYmplY3Q+PC9nPjwvZz48ZyB0cmFuc2Zvcm09InRyYW5zbGF0ZSgtNDQuNTQzNzUwNzYyOTM5NDUsIC0zKSIgY2xhc3M9Im1lbWJlcnMtZ3JvdXAgdGV4dCI+PC9nPjxnIHRyYW5zZm9ybT0idHJhbnNsYXRlKC00NC41NDM3NTA3NjI5Mzk0NSwgMjcpIiBjbGFzcz0ibWV0aG9kcy1ncm91cCB0ZXh0Ij48ZyB0cmFuc2Zvcm09InRyYW5zbGF0ZSgwLC0xMikiIHN0eWxlPSIiIGNsYXNzPSJsYWJlbCI+PGZvcmVpZ25PYmplY3QgaGVpZ2h0PSIyNCIgd2lkdGg9IjU1LjExMjQ5OTIzNzA2MDU1Ij48ZGl2IHN0eWxlPSJkaXNwbGF5OiB0YWJsZS1jZWxsOyB3aGl0ZS1zcGFjZTogbm93cmFwOyBsaW5lLWhlaWdodDogMS41OyBtYXgtd2lkdGg6IDExNHB4OyB0ZXh0LWFsaWduOiBjZW50ZXI7IiB4bWxucz0iaHR0cDovL3d3dy53My5vcmcvMTk5OS94aHRtbCI+PHNwYW4gc3R5bGU9IiIgY2xhc3M9Im5vZGVMYWJlbCBtYXJrZG93bi1ub2RlLWxhYmVsIj48cD4rb3BlbigpPC9wPjwvc3Bhbj48L2Rpdj48L2ZvcmVpZ25PYmplY3Q+PC9nPjxnIHRyYW5zZm9ybT0idHJhbnNsYXRlKDAsMTIpIiBzdHlsZT0iIiBjbGFzcz0ibGFiZWwiPjxmb3JlaWduT2JqZWN0IGhlaWdodD0iMjQiIHdpZHRoPSI1Ni41NzUwMDA3NjI5Mzk0NSI+PGRpdiBzdHlsZT0iZGlzcGxheTogdGFibGUtY2VsbDsgd2hpdGUtc3BhY2U6IG5vd3JhcDsgbGluZS1oZWlnaHQ6IDEuNTsgbWF4LXdpZHRoOiAxMTNweDsgdGV4dC1hbGlnbjogY2VudGVyOyIgeG1sbnM9Imh0dHA6Ly93d3cudzMub3JnLzE5OTkveGh0bWwiPjxzcGFuIHN0eWxlPSIiIGNsYXNzPSJub2RlTGFiZWwgbWFya2Rvd24tbm9kZS1sYWJlbCI+PHA+K2Nsb3NlKCk8L3A+PC9zcGFuPjwvZGl2PjwvZm9yZWlnbk9iamVjdD48L2c+PC9nPjxnIHN0eWxlPSIiIGNsYXNzPSJkaXZpZGVyIj48cGF0aCBzdHlsZT0iIiBmaWxsPSJub25lIiBzdHJva2Utd2lkdGg9IjEuMyIgc3Ryb2tlPSIjOTk5IiBkPSJNLTU2LjU0Mzc1MDc2MjkzOTQ1IC0yNyBDLTEzLjQ5NTM4MzM4NjM1NDYzMiAtMjcsIDI5LjU1Mjk4Mzk5MDIzMDE5IC0yNywgNTYuNTQzNzUwNzYyOTM5NDUgLTI3IE0tNTYuNTQzNzUwNzYyOTM5NDUgLTI3IEMtMTEuNjk3MDI0NTUzOTMxMzUgLTI3LCAzMy4xNDk3MDE2NTUwNzY3NTQgLTI3LCA1Ni41NDM3NTA3NjI5Mzk0NSAtMjciPjwvcGF0aD48L2c+PGcgc3R5bGU9IiIgY2xhc3M9ImRpdmlkZXIiPjxwYXRoIHN0eWxlPSIiIGZpbGw9Im5vbmUiIHN0cm9rZS13aWR0aD0iMS4zIiBzdHJva2U9IiM5OTkiIGQ9Ik0tNTYuNTQzNzUwNzYyOTM5NDUgLTMgQy0xNi42MjI2OTQzNjQ1NzM5NTIgLTMsIDIzLjI5ODM2MjAzMzc5MTU1IC0zLCA1Ni41NDM3NTA3NjI5Mzk0NSAtMyBNLTU2LjU0Mzc1MDc2MjkzOTQ1IC0zIEMtMTIuODcwMjg1NDk5NDQwNjk4IC0zLCAzMC44MDMxNzk3NjQwNTgwNTggLTMsIDU2LjU0Mzc1MDc2MjkzOTQ1IC0zIj48L3BhdGg+PC9nPjwvZz48ZyB0cmFuc2Zvcm09InRyYW5zbGF0ZSgxNTcuMzc1MDA5NTM2NzQzMTYsIDI2OS4zOTk5OTk2MTg1MzAzKSIgaWQ9ImNsYXNzSWQtRG9vckZhY3RvcnktMyIgY2xhc3M9Im5vZGUgZGVmYXVsdCI+PGcgY2xhc3M9ImJhc2ljIGxhYmVsLWNvbnRhaW5lciI+PHBhdGggc3R5bGU9IiIgZmlsbD0iI2VlZSIgc3Ryb2tlLXdpZHRoPSIwIiBzdHJva2U9Im5vbmUiIGQ9Ik0tMTQ4LjE3NTAwMzA1MTc1NzggLTYzIEwxNDguMTc1MDAzMDUxNzU3OCAtNjMgTDE0OC4xNzUwMDMwNTE3NTc4IDYzIEwtMTQ4LjE3NTAwMzA1MTc1NzggNjMiPjwvcGF0aD48cGF0aCBzdHlsZT0iIiBmaWxsPSJub25lIiBzdHJva2Utd2lkdGg9IjEuMyIgc3Ryb2tlPSIjOTk5IiBkPSJNLTE0OC4xNzUwMDMwNTE3NTc4IC02MyBDLTcyLjk4Njc5OTI4MDY1Mzc4IC02MywgMi4yMDE0MDQ0OTA0NTAyNDQgLTYzLCAxNDguMTc1MDAzMDUxNzU3OCAtNjMgTS0xNDguMTc1MDAzMDUxNzU3OCAtNjMgQy00OC4xMzY3NjgwOTQ2OTc1IC02MywgNTEuOTAxNDY2ODYyMzYyODEgLTYzLCAxNDguMTc1MDAzMDUxNzU3OCAtNjMgTTE0OC4xNzUwMDMwNTE3NTc4IC02MyBDMTQ4LjE3NTAwMzA1MTc1NzggLTMwLjgzODEwOTYwNTU3MDE5NiwgMTQ4LjE3NTAwMzA1MTc1NzggMS4zMjM3ODA3ODg4NTk2MDgsIDE0OC4xNzUwMDMwNTE3NTc4IDYzIE0xNDguMTc1MDAzMDUxNzU3OCAtNjMgQzE0OC4xNzUwMDMwNTE3NTc4IC0yNS4zMTc3MTA2OTM2Mzc2OTMsIDE0OC4xNzUwMDMwNTE3NTc4IDEyLjM2NDU3ODYxMjcyNDYxNCwgMTQ4LjE3NTAwMzA1MTc1NzggNjMgTTE0OC4xNzUwMDMwNTE3NTc4IDYzIEM0OC40MTA1Njc1NDI5NTE4MSA2MywgLTUxLjM1Mzg2Nzk2NTg1NDE5IDYzLCAtMTQ4LjE3NTAwMzA1MTc1NzggNjMgTTE0OC4xNzUwMDMwNTE3NTc4IDYzIEM4Ny43MjEzODAxMzAwNTk0MyA2MywgMjcuMjY3NzU3MjA4MzYxMDQ3IDYzLCAtMTQ4LjE3NTAwMzA1MTc1NzggNjMgTS0xNDguMTc1MDAzMDUxNzU3OCA2MyBDLTE0OC4xNzUwMDMwNTE3NTc4IDI3LjQ5OTU3NjAxNjA4MzE5LCAtMTQ4LjE3NTAwMzA1MTc1NzggLTguMDAwODQ3OTY3ODMzNjIyLCAtMTQ4LjE3NTAwMzA1MTc1NzggLTYzIE0tMTQ4LjE3NTAwMzA1MTc1NzggNjMgQy0xNDguMTc1MDAzMDUxNzU3OCAyMy4zMzA2OTIxNTM0NjQzNzYsIC0xNDguMTc1MDAzMDUxNzU3OCAtMTYuMzM4NjE1NjkzMDcxMjQ3LCAtMTQ4LjE3NTAwMzA1MTc1NzggLTYzIj48L3BhdGg+PC9nPjxnIHRyYW5zZm9ybT0idHJhbnNsYXRlKDAsIC0zOSkiIGNsYXNzPSJhbm5vdGF0aW9uLWdyb3VwIHRleHQiPjwvZz48ZyB0cmFuc2Zvcm09InRyYW5zbGF0ZSgtNDUuNjUwMDAxNTI1ODc4OTA2LCAtMzkpIiBjbGFzcz0ibGFiZWwtZ3JvdXAgdGV4dCI+PGcgdHJhbnNmb3JtPSJ0cmFuc2xhdGUoMCwtMTIpIiBzdHlsZT0iZm9udC13ZWlnaHQ6IGJvbGRlciIgY2xhc3M9ImxhYmVsIj48Zm9yZWlnbk9iamVjdCBoZWlnaHQ9IjI0IiB3aWR0aD0iOTEuMzAwMDAzMDUxNzU3ODEiPjxkaXYgc3R5bGU9ImRpc3BsYXk6IHRhYmxlLWNlbGw7IHdoaXRlLXNwYWNlOiBub3dyYXA7IGxpbmUtaGVpZ2h0OiAxLjU7IG1heC13aWR0aDogMTM3cHg7IHRleHQtYWxpZ246IGNlbnRlcjsiIHhtbG5zPSJodHRwOi8vd3d3LnczLm9yZy8xOTk5L3hodG1sIj48c3BhbiBzdHlsZT0iIiBjbGFzcz0ibm9kZUxhYmVsIG1hcmtkb3duLW5vZGUtbGFiZWwiPjxwPkRvb3JGYWN0b3J5PC9wPjwvc3Bhbj48L2Rpdj48L2ZvcmVpZ25PYmplY3Q+PC9nPjwvZz48ZyB0cmFuc2Zvcm09InRyYW5zbGF0ZSgtMTM2LjE3NTAwMzA1MTc1NzgsIDkpIiBjbGFzcz0ibWVtYmVycy1ncm91cCB0ZXh0Ij48L2c+PGcgdHJhbnNmb3JtPSJ0cmFuc2xhdGUoLTEzNi4xNzUwMDMwNTE3NTc4LCAzOSkiIGNsYXNzPSJtZXRob2RzLWdyb3VwIHRleHQiPjxnIHRyYW5zZm9ybT0idHJhbnNsYXRlKDAsLTEyKSIgc3R5bGU9IiIgY2xhc3M9ImxhYmVsIj48Zm9yZWlnbk9iamVjdCBoZWlnaHQ9IjI0IiB3aWR0aD0iMjI2LjY5OTk5Njk0ODI0MjIiPjxkaXYgc3R5bGU9ImRpc3BsYXk6IHRhYmxlLWNlbGw7IHdoaXRlLXNwYWNlOiBub3dyYXA7IGxpbmUtaGVpZ2h0OiAxLjU7IG1heC13aWR0aDogMjgxcHg7IHRleHQtYWxpZ246IGNlbnRlcjsiIHhtbG5zPSJodHRwOi8vd3d3LnczLm9yZy8xOTk5L3hodG1sIj48c3BhbiBzdHlsZT0iIiBjbGFzcz0ibm9kZUxhYmVsIG1hcmtkb3duLW5vZGUtbGFiZWwiPjxwPitjcmVhdGVEb29yKFN0cmluZyB0eXBlKSA6IERvb3I8L3A+PC9zcGFuPjwvZGl2PjwvZm9yZWlnbk9iamVjdD48L2c+PC9nPjxnIHN0eWxlPSIiIGNsYXNzPSJkaXZpZGVyIj48cGF0aCBzdHlsZT0iIiBmaWxsPSJub25lIiBzdHJva2Utd2lkdGg9IjEuMyIgc3Ryb2tlPSIjOTk5IiBkPSJNLTE0OC4xNzUwMDMwNTE3NTc4IC0xNSBDLTMzLjUxMjc3NjUyNzI5NzM5IC0xNSwgODEuMTQ5NDQ5OTk3MTYzMDMgLTE1LCAxNDguMTc1MDAzMDUxNzU3OCAtMTUgTS0xNDguMTc1MDAzMDUxNzU3OCAtMTUgQy01OS44NjIxNzMxMDI3MTc3NiAtMTUsIDI4LjQ1MDY1Njg0NjMyMjI5IC0xNSwgMTQ4LjE3NTAwMzA1MTc1NzggLTE1Ij48L3BhdGg+PC9nPjxnIHN0eWxlPSIiIGNsYXNzPSJkaXZpZGVyIj48cGF0aCBzdHlsZT0iIiBmaWxsPSJub25lIiBzdHJva2Utd2lkdGg9IjEuMyIgc3Ryb2tlPSIjOTk5IiBkPSJNLTE0OC4xNzUwMDMwNTE3NTc4IDkgQy03Ni42NTg0NjM3MjgyMDExOCA5LCAtNS4xNDE5MjQ0MDQ2NDQ1NTYgOSwgMTQ4LjE3NTAwMzA1MTc1NzggOSBNLTE0OC4xNzUwMDMwNTE3NTc4IDkgQy00MC4zODYwOTYyNDMzODg4MzUgOSwgNjcuNDAyODEwNTY0OTgwMTQgOSwgMTQ4LjE3NTAwMzA1MTc1NzggOSI+PC9wYXRoPjwvZz48L2c+PGcgdHJhbnNmb3JtPSJ0cmFuc2xhdGUoMTU3LjM3NTAwOTUzNjc0MzE2LCA3MSkiIGlkPSJjbGFzc0lkLVNpbXBsZUZhY3RvcnlEUC00IiBjbGFzcz0ibm9kZSBkZWZhdWx0Ij48ZyBjbGFzcz0iYmFzaWMgbGFiZWwtY29udGFpbmVyIj48cGF0aCBzdHlsZT0iIiBmaWxsPSIjZWVlIiBzdHJva2Utd2lkdGg9IjAiIHN0cm9rZT0ibm9uZSIgZD0iTS0xMTQuNjQwNjI1IC02MyBMMTE0LjY0MDYyNSAtNjMgTDExNC42NDA2MjUgNjMgTC0xMTQuNjQwNjI1IDYzIj48L3BhdGg+PHBhdGggc3R5bGU9IiIgZmlsbD0ibm9uZSIgc3Ryb2tlLXdpZHRoPSIxLjMiIHN0cm9rZT0iIzk5OSIgZD0iTS0xMTQuNjQwNjI1IC02MyBDLTQ5Ljk5Mjc1NDI2NTQzMTA0NiAtNjMsIDE0LjY1NTExNjQ2OTEzNzkwOSAtNjMsIDExNC42NDA2MjUgLTYzIE0tMTE0LjY0MDYyNSAtNjMgQy00OC42Mzc3NDcxMzk0OTE3OSAtNjMsIDE3LjM2NTEzMDcyMTAxNjQxMyAtNjMsIDExNC42NDA2MjUgLTYzIE0xMTQuNjQwNjI1IC02MyBDMTE0LjY0MDYyNSAtMTQuMjc2NjkzMDU2MDQ3Nzk3LCAxMTQuNjQwNjI1IDM0LjQ0NjYxMzg4NzkwNDQwNSwgMTE0LjY0MDYyNSA2MyBNMTE0LjY0MDYyNSAtNjMgQzExNC42NDA2MjUgLTM0LjYzNTcwMDcxMjYyODgyLCAxMTQuNjQwNjI1IC02LjI3MTQwMTQyNTI1NzY0MywgMTE0LjY0MDYyNSA2MyBNMTE0LjY0MDYyNSA2MyBDMjkuNTgzNjgxNjIwMzk4NzUgNjMsIC01NS40NzMyNjE3NTkyMDI1IDYzLCAtMTE0LjY0MDYyNSA2MyBNMTE0LjY0MDYyNSA2MyBDNDguNjM5MTU4NjUzMzY5MjY1IDYzLCAtMTcuMzYyMzA3NjkzMjYxNDcgNjMsIC0xMTQuNjQwNjI1IDYzIE0tMTE0LjY0MDYyNSA2MyBDLTExNC42NDA2MjUgMzQuNzE2NTQxNzEyNjExODM2LCAtMTE0LjY0MDYyNSA2LjQzMzA4MzQyNTIyMzY3MSwgLTExNC42NDA2MjUgLTYzIE0tMTE0LjY0MDYyNSA2MyBDLTExNC42NDA2MjUgMjYuOTMzOTQ0MzQ0NzI3OTc2LCAtMTE0LjY0MDYyNSAtOS4xMzIxMTEzMTA1NDQwNDcsIC0xMTQuNjQwNjI1IC02MyI+PC9wYXRoPjwvZz48ZyB0cmFuc2Zvcm09InRyYW5zbGF0ZSgwLCAtMzkpIiBjbGFzcz0iYW5ub3RhdGlvbi1ncm91cCB0ZXh0Ij48L2c+PGcgdHJhbnNmb3JtPSJ0cmFuc2xhdGUoLTYyLjg0Mzc1LCAtMzkpIiBjbGFzcz0ibGFiZWwtZ3JvdXAgdGV4dCI+PGcgdHJhbnNmb3JtPSJ0cmFuc2xhdGUoMCwtMTIpIiBzdHlsZT0iZm9udC13ZWlnaHQ6IGJvbGRlciIgY2xhc3M9ImxhYmVsIj48Zm9yZWlnbk9iamVjdCBoZWlnaHQ9IjI0IiB3aWR0aD0iMTI1LjY4NzUiPjxkaXYgc3R5bGU9ImRpc3BsYXk6IHRhYmxlLWNlbGw7IHdoaXRlLXNwYWNlOiBub3dyYXA7IGxpbmUtaGVpZ2h0OiAxLjU7IG1heC13aWR0aDogMTY5cHg7IHRleHQtYWxpZ246IGNlbnRlcjsiIHhtbG5zPSJodHRwOi8vd3d3LnczLm9yZy8xOTk5L3hodG1sIj48c3BhbiBzdHlsZT0iIiBjbGFzcz0ibm9kZUxhYmVsIG1hcmtkb3duLW5vZGUtbGFiZWwiPjxwPlNpbXBsZUZhY3RvcnlEUDwvcD48L3NwYW4+PC9kaXY+PC9mb3JlaWduT2JqZWN0PjwvZz48L2c+PGcgdHJhbnNmb3JtPSJ0cmFuc2xhdGUoLTEwMi42NDA2MjUsIDkpIiBjbGFzcz0ibWVtYmVycy1ncm91cCB0ZXh0Ij48L2c+PGcgdHJhbnNmb3JtPSJ0cmFuc2xhdGUoLTEwMi42NDA2MjUsIDM5KSIgY2xhc3M9Im1ldGhvZHMtZ3JvdXAgdGV4dCI+PGcgdHJhbnNmb3JtPSJ0cmFuc2xhdGUoMCwtMTIpIiBzdHlsZT0iIiBjbGFzcz0ibGFiZWwiPjxmb3JlaWduT2JqZWN0IGhlaWdodD0iMjQiIHdpZHRoPSIxNDIuNDM3NSI+PGRpdiBzdHlsZT0iZGlzcGxheTogdGFibGUtY2VsbDsgd2hpdGUtc3BhY2U6IG5vd3JhcDsgbGluZS1oZWlnaHQ6IDEuNTsgbWF4LXdpZHRoOiAxOThweDsgdGV4dC1hbGlnbjogY2VudGVyOyIgeG1sbnM9Imh0dHA6Ly93d3cudzMub3JnLzE5OTkveGh0bWwiPjxzcGFuIHN0eWxlPSIiIGNsYXNzPSJub2RlTGFiZWwgbWFya2Rvd24tbm9kZS1sYWJlbCI+PHA+K21haW4oU3RyaW5nW10gYXJncyk8L3A+PC9zcGFuPjwvZGl2PjwvZm9yZWlnbk9iamVjdD48L2c+PC9nPjxnIHN0eWxlPSIiIGNsYXNzPSJkaXZpZGVyIj48cGF0aCBzdHlsZT0iIiBmaWxsPSJub25lIiBzdHJva2Utd2lkdGg9IjEuMyIgc3Ryb2tlPSIjOTk5IiBkPSJNLTExNC42NDA2MjUgLTE1IEMtMzQuNzg4OTM5NTI1MzU3NjkgLTE1LCA0NS4wNjI3NDU5NDkyODQ2MiAtMTUsIDExNC42NDA2MjUgLTE1IE0tMTE0LjY0MDYyNSAtMTUgQy02Ni41NzczNjgxMDY1OTA0OCAtMTUsIC0xOC41MTQxMTEyMTMxODA5NTQgLTE1LCAxMTQuNjQwNjI1IC0xNSI+PC9wYXRoPjwvZz48ZyBzdHlsZT0iIiBjbGFzcz0iZGl2aWRlciI+PHBhdGggc3R5bGU9IiIgZmlsbD0ibm9uZSIgc3Ryb2tlLXdpZHRoPSIxLjMiIHN0cm9rZT0iIzk5OSIgZD0iTS0xMTQuNjQwNjI1IDkgQy02Mi40MjMzMDg2MDA5MjI0NyA5LCAtMTAuMjA1OTkyMjAxODQ0OTM2IDksIDExNC42NDA2MjUgOSBNLTExNC42NDA2MjUgOSBDLTQ5Ljg2MDM1ODY5NDEwMjUzIDksIDE0LjkxOTkwNzYxMTc5NDk0IDksIDExNC42NDA2MjUgOSI+PC9wYXRoPjwvZz48L2c+PC9nPjwvZz48L2c+PC9zdmc+;" vertex="1" parent="1">
                        <mxGeometry x="230" y="-120" width="313.5500183105469" height="809.2000732421875" as="geometry"/>
                    </mxCell>
                </UserObject>
            </root>
        </mxGraphModel>
    </diagram>
</mxfile>